<?xml version="1.0" encoding="UTF-8"?>
<svg width="220px" height="220px" viewBox="0 0 220 220" version="1.1" xmlns="http://www.w3.org/2000/svg" xmlns:xlink="http://www.w3.org/1999/xlink">
    <!-- Generator: Sketch 51.3 (57544) - http://www.bohemiancoding.com/sketch -->
    <title>illustration-box</title>
    <desc>Created with Sketch.</desc>
    <defs></defs>
    <g id="illustration-box" stroke="none" stroke-width="1" fill="none" fill-rule="evenodd">
        <g id="illustration-bag" transform="translate(22.000000, 18.000000)">
            <g id="Shape" transform="translate(41.000000, 35.000000)" stroke-linecap="round" stroke-linejoin="round" stroke-width="5">
                <polygon id="Stroke" stroke="#111111" points="48.412 0.116 94.919 26.973 46.588 54.884 0.081 28.027"></polygon>
                <path d="M18,18 L63.507,43.857" id="Stroke-3" stroke="#070707"></path>
                <polygon id="Stroke-4" stroke="#070707" points="64 44.843 64 82.098 70.916 70.588 77.995 74.255 77.995 37 70.719 41.078"></polygon>
                <polyline id="Stroke-5" stroke="#111111" points="95 28 94.919 86.973 46.588 114.884 0 88 0 29"></polyline>
                <path d="M46,55 L46,113" id="Stroke-6" stroke="#111111"></path>
                <path d="M32.412,11.116 L77.1982422,36.8691406" id="Stroke-2" stroke="#070707"></path>
            </g>
            <g id="Pattern" opacity="0.34" fill="#142239">
                <rect id="s" fill-rule="nonzero" x="50" y="2" width="6" height="6"></rect>
                <polygon id="v" points="93 178 82 178 87.5 184"></polygon>
                <polygon id="v-2" points="4.343 57 15.657 57 10 62.657"></polygon>
                <rect id="o" fill-rule="nonzero" x="168" y="130" width="8" height="8" rx="4"></rect>
                <rect id="o-2" fill-rule="nonzero" x="119" y="0" width="8" height="8" rx="4"></rect>
                <rect id="o-3" fill-rule="nonzero" x="0" y="134" width="8" height="8" rx="4"></rect>
                <rect id="s-2" fill-rule="nonzero" x="158" y="64" width="6" height="6"></rect>
            </g>
        </g>
    </g>
</svg>