<?xml version="1.0" encoding="UTF-8"?>
<svg width="220px" height="220px" viewBox="0 0 220 220" version="1.1" xmlns="http://www.w3.org/2000/svg" xmlns:xlink="http://www.w3.org/1999/xlink">
    <!-- Generator: Sketch 51.3 (57544) - http://www.bohemiancoding.com/sketch -->
    <title>illustration-address</title>
    <desc>Created with Sketch.</desc>
    <defs></defs>
    <g id="illustration-address" stroke="none" stroke-width="1" fill="none" fill-rule="evenodd">
        <g id="illustration-review" transform="translate(22.000000, 18.000000)" fill="#142239" opacity="0.34">
            <g id="Pattern">
                <rect id="s" fill-rule="nonzero" x="50" y="2" width="6" height="6"></rect>
                <polygon id="v" points="93 178 82 178 87.5 184"></polygon>
                <polygon id="v-2" points="4.343 57 15.657 57 10 62.657"></polygon>
                <rect id="o" fill-rule="nonzero" x="168" y="130" width="8" height="8" rx="4"></rect>
                <rect id="o-2" fill-rule="nonzero" x="119" y="0" width="8" height="8" rx="4"></rect>
                <rect id="o-3" fill-rule="nonzero" x="0" y="134" width="8" height="8" rx="4"></rect>
                <rect id="s-2" fill-rule="nonzero" x="158" y="64" width="6" height="6"></rect>
            </g>
        </g>
        <g transform="translate(57.000000, 54.000000)" stroke="#000000" stroke-width="5">
            <path d="M8,44.8642578 L8,10 C8,4.4771525 12.4771525,0 18,0 L90,0 C95.5228475,0 100,4.4771525 100,10 L100,103 C100,108.522847 95.5228475,113 90,113 L18,113 C12.4771525,113 8,108.522847 8,103 L8,73.6782227" id="Rounded_Rectangle_1"></path>
            <path d="M0,35 L7,35" id="Shape"></path>
            <polyline id="Shape_1_copy" points="0 61 8 61 8 54"></polyline>
            <path d="M0,84.25 L7,84.25" id="Shape_1_copy_2"></path>
            <circle id="Oval" cx="55.5" cy="45.5" r="13.5"></circle>
            <path d="M32,81.9999995 C32.0000003,69.2974505 42.2974509,59 55,59 C67.7025491,59 77.9999997,69.2974505 78,81.9999995" id="Ellipse_1_copy" stroke-linecap="round" stroke-linejoin="round"></path>
        </g>
    </g>
</svg>