<?xml version="1.0" encoding="UTF-8"?>
<svg width="24px" height="24px" viewBox="0 0 24 24" version="1.1" xmlns="http://www.w3.org/2000/svg" xmlns:xlink="http://www.w3.org/1999/xlink">
    <!-- Generator: Sketch 51.3 (57544) - http://www.bohemiancoding.com/sketch -->
    <title>Icon-bell</title>
    <desc>Created with Sketch.</desc>
    <defs></defs>
    <g id="Icon-bell" stroke="none" stroke-width="1" fill="none" fill-rule="evenodd">
        <path d="M18.1587456,14.6127468 C19.0199142,14.7955482 19.6660156,15.5602889 19.6660156,16.4759347 C19.6660156,17.52788 18.8132455,18.3806501 17.7613002,18.3806501 L6.9047154,18.3806501 C5.85277013,18.3806501 5,17.52788 5,16.4759347 C5,15.6703217 5.50014806,14.9815246 6.20687623,14.7031113 L6.20687623,10.5952846 C6.20687623,7.294867 8.88239333,4.6193499 12.1828109,4.6193499 C15.4832285,4.6193499 18.1587456,7.294867 18.1587456,10.5952846 L18.1587456,14.6127468 Z" id="Combined-Shape" stroke="#979797" stroke-width="2"></path>
        <path d="M10,18 L15,18 L15,19 C15,20.3807119 13.8807119,21.5 12.5,21.5 C11.1192881,21.5 10,20.3807119 10,19 L10,18 Z" id="Oval-16" stroke="#979797" stroke-width="2"></path>
        <path d="M11.5,4.5 L12.5,4.5 L12.5,3 C12.5,2.72385763 12.2761424,2.5 12,2.5 C11.7238576,2.5 11.5,2.72385763 11.5,3 L11.5,4.5 Z" id="Rectangle-21" stroke="#979797" fill="#D8D8D8" fill-rule="nonzero"></path>
    </g>
</svg>