<?xml version="1.0" encoding="UTF-8"?>
<svg width="220px" height="220px" viewBox="0 0 220 220" version="1.1" xmlns="http://www.w3.org/2000/svg" xmlns:xlink="http://www.w3.org/1999/xlink">
    <!-- Generator: Sketch 51.3 (57544) - http://www.bohemiancoding.com/sketch -->
    <title>illustration-search</title>
    <desc>Created with Sketch.</desc>
    <defs></defs>
    <g id="illustration-search" stroke="none" stroke-width="1" fill="none" fill-rule="evenodd">
        <g transform="translate(22.000000, 18.000000)">
            <g id="Pattern" opacity="0.34" fill="#142239">
                <rect id="s" fill-rule="nonzero" x="50" y="2" width="6" height="6"></rect>
                <polygon id="v" points="93 178 82 178 87.5 184"></polygon>
                <polygon id="v-2" points="4.343 57 15.657 57 10 62.657"></polygon>
                <rect id="o" fill-rule="nonzero" x="168" y="130" width="8" height="8" rx="4"></rect>
                <rect id="o-2" fill-rule="nonzero" x="119" y="0" width="8" height="8" rx="4"></rect>
                <rect id="o-3" fill-rule="nonzero" x="0" y="134" width="8" height="8" rx="4"></rect>
                <rect id="s-2" fill-rule="nonzero" x="158" y="64" width="6" height="6"></rect>
            </g>
            <g id="Shape" transform="translate(46.000000, 38.000000)" stroke="#000000" stroke-width="5">
                <circle id="Oval" cx="82" cy="41" r="19"></circle>
                <path d="M95,55 L105,65" stroke-linecap="round" stroke-linejoin="round"></path>
                <path d="M16,24 L55,24" stroke-linecap="round" stroke-linejoin="round"></path>
                <path d="M16,45 L45,45" id="Shape_2_copy" stroke-linecap="round" stroke-linejoin="round"></path>
                <path d="M16,86 L51,86" id="Shape_2_copy_2" stroke-linecap="round" stroke-linejoin="round"></path>
                <path d="M16,65 L35,65" id="Shape_2_copy_3" stroke-linecap="round" stroke-linejoin="round"></path>
                <polyline stroke-linecap="round" stroke-linejoin="round" points="84 71 84 110 0 110 0 0 84 0 84 12"></polyline>
            </g>
        </g>
    </g>
</svg>