<?xml version="1.0" encoding="UTF-8"?>
<svg width="24px" height="24px" viewBox="0 0 24 24" version="1.1" xmlns="http://www.w3.org/2000/svg" xmlns:xlink="http://www.w3.org/1999/xlink">
    <!-- Generator: Sketch 51.3 (57544) - http://www.bohemiancoding.com/sketch -->
    <title>icon/sharp/cart-remove</title>
    <desc>Created with Sketch.</desc>
    <defs>
        <path d="M1.41,0 L0,1.41 L4.39,5.8 L6.6,10.46 L5.25,12.91 C5.09,13.19 5,13.52 5,13.87 C5,14.97 5.9,15.87 7,15.87 L14.46,15.87 L15.84,17.25 C15.34,17.61 15.01,18.2 15.01,18.87 C15.01,19.97 15.9,20.87 17,20.87 C17.67,20.87 18.26,20.54 18.62,20.03 L21.46,22.87 L22.87,21.46 L1.41,0 Z M7,13.87 L8.1,11.87 L10.46,11.87 L12.46,13.87 L7,13.87 Z M20,2.87 L7.12,2.87 L9.12,4.87 L18.31,4.87 L15.55,9.87 L14.11,9.87 L16.05,11.81 C16.59,11.67 17.04,11.32 17.3,10.84 L20.88,4.35 C21.25,3.69 20.76,2.87 20,2.87 Z M7,16.87 C5.9,16.87 5.01,17.77 5.01,18.87 C5.01,19.97 5.9,20.87 7,20.87 C8.1,20.87 9,19.97 9,18.87 C9,17.77 8.1,16.87 7,16.87 Z" id="path-1"></path>
    </defs>
    <g id="icon/sharp/cart-remove" stroke="none" stroke-width="1" fill="none" fill-rule="evenodd">
        <g id="↳-Icon-Color" transform="translate(1.000000, 1.000000)">
            <mask id="mask-2" fill="white">
                <use xlink:href="#path-1"></use>
            </mask>
            <use id="Mask" fill="#000000" fill-rule="nonzero" xlink:href="#path-1"></use>
            <g id="✱-/-Color-/-Icons-/-Selected-/-On-Surface-/-Active" mask="url(#mask-2)" fill="#000000">
                <g transform="translate(-1.000000, -1.000000)" id="Rectangle-3">
                    <rect x="0" y="0" width="24" height="24"></rect>
                </g>
            </g>
        </g>
    </g>
</svg>