<?xml version="1.0" encoding="UTF-8"?>
<svg width="220px" height="220px" viewBox="0 0 220 220" version="1.1" xmlns="http://www.w3.org/2000/svg" xmlns:xlink="http://www.w3.org/1999/xlink">
    <!-- Generator: Sketch 51.3 (57544) - http://www.bohemiancoding.com/sketch -->
    <title>illustration-review</title>
    <desc>Created with Sketch.</desc>
    <defs></defs>
    <g id="illustration-review" stroke="none" stroke-width="1" fill="none" fill-rule="evenodd">
        <g transform="translate(22.000000, 18.000000)">
            <g id="Pattern" opacity="0.34" fill="#142239">
                <rect id="s" fill-rule="nonzero" x="50" y="2" width="6" height="6"></rect>
                <polygon id="v" points="93 178 82 178 87.5 184"></polygon>
                <polygon id="v-2" points="4.343 57 15.657 57 10 62.657"></polygon>
                <rect id="o" fill-rule="nonzero" x="168" y="130" width="8" height="8" rx="4"></rect>
                <rect id="o-2" fill-rule="nonzero" x="119" y="0" width="8" height="8" rx="4"></rect>
                <rect id="o-3" fill-rule="nonzero" x="0" y="134" width="8" height="8" rx="4"></rect>
                <rect id="s-2" fill-rule="nonzero" x="158" y="64" width="6" height="6"></rect>
            </g>
            <g id="Shape" transform="translate(44.000000, 53.000000)" stroke="#070707" stroke-linecap="round" stroke-linejoin="round" stroke-width="5">
                <polygon id="Stroke" points="88 0 0 0 0 61 51 61 71 78 71.01 61 88 61"></polygon>
                <polygon id="Stroke-2" points="53.2 42.525 44.506 38.453 35.824 42.553 37.106 33.227 30.431 26.435 39.917 24.743 44.474 16.45 49.055 24.73 58.546 26.396 51.891 33.206"></polygon>
            </g>
        </g>
    </g>
</svg>