<?xml version="1.0" encoding="UTF-8"?>
<svg width="24px" height="24px" viewBox="0 0 24 24" version="1.1" xmlns="http://www.w3.org/2000/svg" xmlns:xlink="http://www.w3.org/1999/xlink">
    <!-- Generator: Sketch 51.3 (57544) - http://www.bohemiancoding.com/sketch -->
    <title>Icon-Trash</title>
    <desc>Created with Sketch.</desc>
    <defs>
        <path d="M11,6 L11,16 L3,16 L3,6 L11,6 Z M9.5,0 L4.5,0 L3.5,1 L0,1 L0,3 L14,3 L14,1 L10.5,1 L9.5,0 Z M13,4 L1,4 L1,16 C1,17.1 1.9,18 3,18 L11,18 C12.1,18 13,17.1 13,16 L13,4 Z" id="path-1"></path>
    </defs>
    <g id="Icon-Trash" stroke="none" stroke-width="1" fill="none" fill-rule="evenodd">
        <g id="↳-Icon-Color" transform="translate(5.000000, 2.000000)">
            <mask id="mask-2" fill="white">
                <use xlink:href="#path-1"></use>
            </mask>
            <use id="Mask" fill="#000000" fill-rule="nonzero" xlink:href="#path-1"></use>
            <g id="✱-/-Color-/-Icons-/-Selected-/-On-Surface-/-Active" mask="url(#mask-2)" fill="#000000">
                <g transform="translate(-5.000000, -3.000000)" id="Rectangle-3">
                    <rect x="0" y="0" width="24" height="24"></rect>
                </g>
            </g>
        </g>
    </g>
</svg>